2014019_C4_05_grf
version=1
nRows=37
nColumns=19
inDegrees=no
endheader
time	ground_force_1_vx	ground_force_1_vy	ground_force_1_vz	ground_force_1_px	ground_force_1_py	ground_force_1_pz	ground_force_1_mx	ground_force_1_my	ground_force_1_mz	ground_force_2_vx	ground_force_2_vy	ground_force_2_vz	ground_force_2_px	ground_force_2_py	ground_force_2_pz	ground_force_2_mx	ground_force_2_my	ground_force_2_mz
      0.86000000	     -5.81556931	    595.55279464	    -19.14844960	     -0.25057038	     -0.00200000	      0.27430486	      0.00000000	     -0.95061444	     -0.00000000	      0.00000000	      0.00000000	      0.00000000	      0.00000000	      0.00000000	      0.00000000	      0.00000000	      0.00000000	      0.00000000
      0.86100000	     -5.37918648	    594.85733137	    -19.04367059	     -0.25018529	     -0.00200000	      0.27441128	      0.00000000	     -0.92407767	      0.00000000	      0.00000000	      0.00000000	      0.00000000	      0.00000000	      0.00000000	      0.00000000	      0.00000000	      0.00000000	      0.00000000
      0.86200000	     -4.94813314	    594.19231117	    -18.93188804	     -0.24979456	     -0.00200000	      0.27451789	     -0.00000000	     -0.89697410	      0.00000000	      0.00000000	      0.00000000	      0.00000000	      0.00000000	      0.00000000	      0.00000000	      0.00000000	      0.00000000	      0.00000000
      0.86300000	     -4.52386052	    593.56521070	    -18.81185099	     -0.24939675	     -0.00200000	      0.27462479	      0.00000000	     -0.86918668	      0.00000000	      0.00000000	      0.00000000	      0.00000000	      0.00000000	      0.00000000	      0.00000000	      0.00000000	      0.00000000	      0.00000000
      0.86400000	     -4.10510646	    592.96835214	    -18.68562400	     -0.24899327	     -0.00200000	      0.27473196	      0.00000000	     -0.84087374	     -0.00000000	      0.00000000	      0.00000000	      0.00000000	      0.00000000	      0.00000000	      0.00000000	      0.00000000	      0.00000000	      0.00000000
      0.86500000	     -3.69337969	    592.40901098	    -18.55220944	     -0.24858266	     -0.00200000	      0.27483950	      0.00000000	     -0.81193421	      0.00000000	      0.00000000	      0.00000000	      0.00000000	      0.00000000	      0.00000000	      0.00000000	      0.00000000	      0.00000000	      0.00000000
      0.86600000	     -3.28738219	    591.87944233	    -18.41351092	     -0.24816632	     -0.00200000	      0.27494736	      0.00000000	     -0.78251930	     -0.00000000	      0.00000000	      0.00000000	      0.00000000	      0.00000000	      0.00000000	      0.00000000	      0.00000000	      0.00000000	      0.00000000
      0.86700000	     -2.88868719	    591.38665348	    -18.26881245	     -0.24774278	     -0.00200000	      0.27505564	      0.00000000	     -0.75254349	      0.00000000	      0.00000000	      0.00000000	      0.00000000	      0.00000000	      0.00000000	      0.00000000	      0.00000000	      0.00000000	      0.00000000
      0.86800000	     -2.49595125	    590.92296660	    -18.11980903	     -0.24731344	     -0.00200000	      0.27516429	      0.00000000	     -0.72214681	     -0.00000000	      0.00000000	      0.00000000	      0.00000000	      0.00000000	      0.00000000	      0.00000000	      0.00000000	      0.00000000	      0.00000000
      0.86900000	     -2.11081561	    590.49528837	    -17.96606332	     -0.24687681	     -0.00200000	      0.27527343	      0.00000000	     -0.69126192	      0.00000000	      0.00000000	      0.00000000	      0.00000000	      0.00000000	      0.00000000	      0.00000000	      0.00000000	      0.00000000	      0.00000000
      0.87000000	     -1.73188152	    590.09597450	    -17.80904084	     -0.24643429	     -0.00200000	      0.27538298	      0.00000000	     -0.66001830	     -0.00000000	      0.00000000	      0.00000000	      0.00000000	      0.00000000	      0.00000000	      0.00000000	      0.00000000	      0.00000000	      0.00000000
      0.87100000	     -1.36084424	    589.73173052	    -17.64858887	     -0.24598436	     -0.00200000	      0.27549305	     -0.00000000	     -0.62836760	      0.00000000	      0.00000000	      0.00000000	      0.00000000	      0.00000000	      0.00000000	      0.00000000	      0.00000000	      0.00000000	      0.00000000
      0.87200000	     -0.99623285	    589.39504623	    -17.48593152	     -0.24552846	     -0.00200000	      0.27560356	      0.00000000	     -0.59642629	     -0.00000000	      0.00000000	      0.00000000	      0.00000000	      0.00000000	      0.00000000	      0.00000000	      0.00000000	      0.00000000	      0.00000000
      0.87300000	     -0.63978284	    589.09239247	    -17.32119098	     -0.24506507	     -0.00200000	      0.27571463	      0.00000000	     -0.56416747	      0.00000000	      0.00000000	      0.00000000	      0.00000000	      0.00000000	      0.00000000	      0.00000000	      0.00000000	      0.00000000	      0.00000000
      0.87400000	     -0.28996155	    588.81649375	    -17.15532690	     -0.24459568	     -0.00200000	      0.27582618	      0.00000000	     -0.53169256	     -0.00000000	      0.00000000	      0.00000000	      0.00000000	      0.00000000	      0.00000000	      0.00000000	      0.00000000	      0.00000000	      0.00000000
      0.87500000	      0.05145623	    588.57335150	    -16.98872298	     -0.24411875	     -0.00200000	      0.27593835	      0.00000000	     -0.49899709	      0.00000000	      0.00000000	      0.00000000	      0.00000000	      0.00000000	      0.00000000	      0.00000000	      0.00000000	      0.00000000	      0.00000000
      0.87600000	      0.38606254	    588.35595846	    -16.82205647	     -0.24363580	     -0.00200000	      0.27605104	      0.00000000	     -0.46616655	     -0.00000000	      0.00000000	      0.00000000	      0.00000000	      0.00000000	      0.00000000	      0.00000000	      0.00000000	      0.00000000	      0.00000000
      0.87700000	      0.71204847	    588.16994727	    -16.65595695	     -0.24314531	     -0.00200000	      0.27616442	      0.00000000	     -0.43322096	     -0.00000000	      0.00000000	      0.00000000	      0.00000000	      0.00000000	      0.00000000	      0.00000000	      0.00000000	      0.00000000	      0.00000000
      0.87800000	      1.03105628	    588.00854534	    -16.49081707	     -0.24264877	     -0.00200000	      0.27627836	      0.00000000	     -0.40022770	     -0.00000000	      0.00000000	      0.00000000	      0.00000000	      0.00000000	      0.00000000	      0.00000000	      0.00000000	      0.00000000	      0.00000000
      0.87900000	      1.34124205	    587.87708357	    -16.32749662	     -0.24214470	     -0.00200000	      0.27639305	      0.00000000	     -0.36723167	      0.00000000	      0.00000000	      0.00000000	      0.00000000	      0.00000000	      0.00000000	      0.00000000	      0.00000000	      0.00000000	      0.00000000
      0.88000000	      1.64428982	    587.76902407	    -16.16611332	     -0.24163458	     -0.00200000	      0.27650836	      0.00000000	     -0.33427884	     -0.00000000	      0.00000000	      0.00000000	      0.00000000	      0.00000000	      0.00000000	      0.00000000	      0.00000000	      0.00000000	      0.00000000
      0.88100000	      1.93831848	    587.68946305	    -16.00774080	     -0.24111693	     -0.00200000	      0.27662447	     -0.00000000	     -0.30143500	      0.00000000	      0.00000000	      0.00000000	      0.00000000	      0.00000000	      0.00000000	      0.00000000	      0.00000000	      0.00000000	      0.00000000
      0.88200000	      2.22506328	    587.63203025	    -15.85223675	     -0.24059327	     -0.00200000	      0.27674124	      0.00000000	     -0.26872032	     -0.00000000	      0.00000000	      0.00000000	      0.00000000	      0.00000000	      0.00000000	      0.00000000	      0.00000000	      0.00000000	      0.00000000
      0.88300000	      2.50263372	    587.60148659	    -15.70087075	     -0.24006212	     -0.00200000	      0.27685889	      0.00000000	     -0.23621621	      0.00000000	      0.00000000	      0.00000000	      0.00000000	      0.00000000	      0.00000000	      0.00000000	      0.00000000	      0.00000000	      0.00000000
      0.88400000	      2.77282298	    587.59179711	    -15.55323601	     -0.23952501	     -0.00200000	      0.27697726	      0.00000000	     -0.20391717	     -0.00000000	      0.00000000	      0.00000000	      0.00000000	      0.00000000	      0.00000000	      0.00000000	      0.00000000	      0.00000000	      0.00000000
      0.88500000	      3.03375348	    587.60735393	    -15.41075185	     -0.23898053	     -0.00200000	      0.27709659	      0.00000000	     -0.17191535	      0.00000000	      0.00000000	      0.00000000	      0.00000000	      0.00000000	      0.00000000	      0.00000000	      0.00000000	      0.00000000	      0.00000000
      0.88600000	      3.28726089	    587.64228970	    -15.27275443	     -0.23843017	     -0.00200000	      0.27721672	      0.00000000	     -0.14018083	     -0.00000000	      0.00000000	      0.00000000	      0.00000000	      0.00000000	      0.00000000	      0.00000000	      0.00000000	      0.00000000	      0.00000000
      0.88700000	      3.53147544	    587.70076185	    -15.14079422	     -0.23787255	     -0.00200000	      0.27733791	     -0.00000000	     -0.10881279	     -0.00000000	      0.00000000	      0.00000000	      0.00000000	      0.00000000	      0.00000000	      0.00000000	      0.00000000	      0.00000000	      0.00000000
      0.88800000	      3.76824779	    587.77727187	    -15.01398981	     -0.23730918	     -0.00200000	      0.27745999	      0.00000000	     -0.07776207	     -0.00000000	      0.00000000	      0.00000000	      0.00000000	      0.00000000	      0.00000000	      0.00000000	      0.00000000	      0.00000000	      0.00000000
      0.88900000	      3.99571122	    587.87554130	    -14.89400119	     -0.23673868	     -0.00200000	      0.27758328	     -0.00000000	     -0.04713697	      0.00000000	      0.00000000	      0.00000000	      0.00000000	      0.00000000	      0.00000000	      0.00000000	      0.00000000	      0.00000000	      0.00000000
      0.89000000	      4.21572430	    587.99044043	    -14.77973908	     -0.23616253	     -0.00200000	      0.27770756	      0.00000000	     -0.01687600	     -0.00000000	      0.00000000	      0.00000000	      0.00000000	      0.00000000	      0.00000000	      0.00000000	      0.00000000	      0.00000000	      0.00000000
      0.89100000	      4.42642346	    588.12528849	    -14.67294097	     -0.23557939	     -0.00200000	      0.27783314	     -0.00000000	      0.01289992	      0.00000000	      0.00000000	      0.00000000	      0.00000000	      0.00000000	      0.00000000	      0.00000000	      0.00000000	      0.00000000	      0.00000000
      0.89200000	      4.62967064	    588.27549219	    -14.57232982	     -0.23499070	     -0.00200000	      0.27795978	      0.00000000	      0.04226384	      0.00000000	      0.00000000	      0.00000000	      0.00000000	      0.00000000	      0.00000000	      0.00000000	      0.00000000	      0.00000000	      0.00000000
      0.89300000	      4.82360809	    588.44400197	    -14.47968930	     -0.23439515	     -0.00200000	      0.27808776	      0.00000000	      0.07108351	      0.00000000	      0.00000000	      0.00000000	      0.00000000	      0.00000000	      0.00000000	      0.00000000	      0.00000000	      0.00000000	      0.00000000
      0.89400000	      5.01010614	    588.62652630	    -14.39358294	     -0.23379416	     -0.00200000	      0.27821682	      0.00000000	      0.09944592	      0.00000000	      0.00000000	      0.00000000	      0.00000000	      0.00000000	      0.00000000	      0.00000000	      0.00000000	      0.00000000	      0.00000000
      0.89500000	      5.18732588	    588.82594854	    -14.31581303	     -0.23318646	     -0.00200000	      0.27834721	     -0.00000000	      0.12721022	      0.00000000	      0.00000000	      0.00000000	      0.00000000	      0.00000000	      0.00000000	      0.00000000	      0.00000000	      0.00000000	      0.00000000
      0.89600000	      5.35714719	    589.03824538	    -14.24481869	     -0.23257343	     -0.00200000	      0.27847867	      0.00000000	      0.15447562	      0.00000000	      0.00000000	      0.00000000	      0.00000000	      0.00000000	      0.00000000	      0.00000000	      0.00000000	      0.00000000	      0.00000000
